<?xml version="1.0" encoding="utf-8"?>
<!-- Generator: Adobe Illustrator 19.2.1, SVG Export Plug-In . SVG Version: 6.00 Build 0)  -->
<svg version="1.1" id="Layer_1" xmlns="http://www.w3.org/2000/svg" xmlns:xlink="http://www.w3.org/1999/xlink" x="0px" y="0px"
	 viewBox="0 0 2000 2000" style="enable-background:new 0 0 2000 2000;" xml:space="preserve">
<style type="text/css">
	.st0{fill:#FFFFFF;}
</style>
<g>
	<path class="st0" d="M1416.7,450.3H689.1c-45.8,0-82.9,37.1-82.9,82.9v75.4h136.5c45.8,0,83,37.1,83,82.9v15.1
		c0,45.8-37.1,82.9-83,82.9H606.1v114.2h136.5c45.8,0,83,37.1,83,82.9v15.1c0,45.8-37.1,82.9-83,82.9H606.1v114.2h136.5
		c45.8,0,83,37.1,83,82.9v15.1c0,45.8-37.1,82.9-83,82.9H606.1v86.7c0,45.8,37.1,82.9,82.9,82.9h727.6c45.8,0,83-37.1,83-82.9V533.3
		C1499.6,487.5,1462.5,450.3,1416.7,450.3z M1218.2,1080.3c0,33.3-27,60.3-60.3,60.3h-96.5c-33.3,0-60.3-27-60.3-60.3V915.2
		c0-33.3,27-60.3,60.3-60.3h96.5c33.3,0,60.3,27,60.3,60.3V1080.3z"/>
	<path class="st0" d="M493,742.7h234.2c24.7,0,44.7-20,44.7-44.7s-20-44.7-44.7-44.7H493c-24.7,0-44.7,20-44.7,44.7
		S468.3,742.7,493,742.7z"/>
	<path class="st0" d="M493,1044.7h234.2c24.7,0,44.7-20,44.7-44.7c0-24.7-20-44.7-44.7-44.7H493c-24.7,0-44.7,20-44.7,44.7
		C448.2,1024.7,468.3,1044.7,493,1044.7z"/>
	<path class="st0" d="M772,1291.8c0-24.7-20-44.7-44.7-44.7H493c-24.7,0-44.7,20-44.7,44.7s20,44.7,44.7,44.7h234.2
		C751.9,1336.6,772,1316.5,772,1291.8z"/>
</g>
</svg>
