<?xml version="1.0" encoding="utf-8"?>
<!-- Generator: Adobe Illustrator 19.2.1, SVG Export Plug-In . SVG Version: 6.00 Build 0)  -->
<svg version="1.1" id="Layer_1" xmlns="http://www.w3.org/2000/svg" xmlns:xlink="http://www.w3.org/1999/xlink" x="0px" y="0px"
	 viewBox="0 0 1000 1000" style="enable-background:new 0 0 1000 1000;" xml:space="preserve">
<style type="text/css">
	.st0{fill:#FFFFFF;}
</style>
<path class="st0" d="M486.6,185.1c-129.7,0-234.8,105.1-234.8,234.8c0,33.1,6.8,64.6,19.2,93.1c7.9,18.2,216.5,347.2,216.5,347.2
	l203.6-324.8c4.4-7.8,8.4-15.9,11.9-24.2c11.9-28.1,18.4-58.9,18.4-91.3C721.4,290.2,616.3,185.1,486.6,185.1z M486.6,517.5
	c-46.7,0-84.5-37.8-84.5-84.5c0-46.7,37.8-84.5,84.5-84.5c46.7,0,84.5,37.8,84.5,84.5C571.1,479.7,533.3,517.5,486.6,517.5z"/>
</svg>
