<svg id="Layer_1" data-name="Layer 1" xmlns="http://www.w3.org/2000/svg" viewBox="0 0 357.14 63.99"><defs><style>.cls-1{fill:#fff;}.cls-2{fill:#fdc236;}</style></defs><title>border</title><path class="cls-1" d="M357,63.59c0,0.52-19.38-6.1-28.17-8.56Q255.06,34.35,181.17,13.9a13.23,13.23,0,0,0-6.75,0Q90.47,37.35,6.59,61C5,61.44.07,63,.07,63v1.28h357V63.14C357.06,63.3,357.06,63.46,357,63.59Z" transform="translate(0.01 -0.29)"/><path class="cls-2" d="M0.06,62.73v-12C0,54.51-.06,59.14.06,62.73Z" transform="translate(0.01 -0.29)"/><path class="cls-2" d="M357.07,49.59h0V63.14C357.2,59,357.07,53.59,357.07,49.59Z" transform="translate(0.01 -0.29)"/><path class="cls-2" d="M6.59,61q83.9-23.61,167.83-47.07a13.23,13.23,0,0,1,6.75,0q73.89,20.44,147.71,41.13c8.78,2.46,28.15,9.09,28.17,8.56v-14c-1.78-.35-3.6-1.19-5.35-1.68L182.88,1.06a17.23,17.23,0,0,0-8.72-.39C133.59,11.91,93.09,23.41,52.54,34.73,35.09,39.59,17.56,44.25.07,49v14C0.07,63,5,61.44,6.59,61Z" transform="translate(0.01 -0.29)"/></svg>